<svg width="113" height="136" viewBox="0 0 113 136" fill="none" xmlns="http://www.w3.org/2000/svg">
<path d="M17.1758 -29.6924C21.9167 -29.6924 25.4737 -28.0826 28.1114 -24.8995C30.765 -21.6971 32.3038 -16.7574 32.3038 -9.72272V55.2529C32.3038 61.7524 30.6371 66.4081 27.668 69.5839C24.5044 72.8898 21.0321 74.4218 17.1758 74.4218C12.4042 74.4217 8.88907 72.8399 6.34088 69.7812C3.77643 66.7029 2.30772 61.8794 2.30768 55.0097V-7.61432C2.30768 -15.3299 3.74117 -20.8121 6.33209 -24.4385L6.33307 -24.4376C8.82485 -27.9228 12.3342 -29.6924 17.1758 -29.6924Z" stroke="#F8F8F8" stroke-width="4.61438"/>
<path d="M94.1546 23.5123C95.8332 23.4616 97.5054 23.7525 99.0706 24.3698C100.636 24.987 102.062 25.9182 103.265 27.1071L103.494 27.3365C104.576 28.4496 105.435 29.7659 106.02 31.2135C106.644 32.7578 106.943 34.4172 106.899 36.0856L106.898 36.1188V36.152C106.902 38.1176 106.008 40.7182 103.771 44.0387C101.555 47.3273 98.1615 51.1149 93.5198 55.4059L93.511 55.4147L93.5013 55.4235L80.8587 67.3678L80.8568 67.3707C78.0521 70.0288 77.0138 72.9741 76.972 75.7008C76.9316 78.3383 77.8219 80.6005 78.5726 82.0504L78.6126 82.1276L78.6585 82.2028L110.3 133.396C112.916 137.651 114.768 140.853 115.865 142.999L115.876 143.023L115.889 143.047C116.713 144.571 117.181 146.263 117.259 147.996L117.27 148.342C117.264 153.601 115.889 157.444 113.365 160.197C110.848 162.926 107.524 164.341 103.16 164.341C99.373 164.341 96.7806 163.302 95.012 161.509C92.9145 159.338 89.9357 155.253 86.0482 149.097L62.929 109.95L47.5921 82.0387L47.5482 81.9586L47.5052 81.8951L47.5062 81.8961V81.8951C47.5027 81.8896 47.4938 81.8748 47.4798 81.8512C47.4512 81.8031 47.4023 81.7182 47.3392 81.5983C47.2128 81.358 47.0304 80.9797 46.8392 80.4781C46.4562 79.4738 46.0425 77.9889 45.9622 76.1324C45.8049 72.4945 46.9116 67.1305 52.6849 60.8981L75.3616 36.4352L75.3665 36.4303C80.2137 31.1739 83.7062 27.7551 86.0999 25.983C88.3951 24.2939 91.1794 23.4258 94.014 23.5123L94.0843 23.5143L94.1546 23.5123Z" stroke="#F8F8F8" stroke-width="4.61438"/>
<path d="M17.3049 134.813C20.1125 134.813 22.86 135.65 25.2014 137.22C27.5429 138.79 29.3756 141.026 30.467 143.648C31.5584 146.27 31.8588 149.16 31.3293 151.954C30.7998 154.749 29.4653 157.321 27.4953 159.349C25.5255 161.377 23.0081 162.77 20.2609 163.358C17.5139 163.945 14.6556 163.701 12.0441 162.656C9.43252 161.612 7.1813 159.811 5.57538 157.477C4.06966 155.288 3.19474 152.723 3.04413 150.067L3.02362 149.534C2.99221 145.665 4.48206 141.944 7.16132 139.186C9.83989 136.429 13.4881 134.858 17.3049 134.812V134.813Z" stroke="#F8F8F8" stroke-width="4.61438"/>
</svg>
