<svg width="99" height="34" viewBox="0 0 99 34" fill="none" xmlns="http://www.w3.org/2000/svg">
<path d="M2.3879 0C1.62114 0 1.03167 0.288271 0.619481 0.864809C0.20409 1.44619 0 2.28556 0 3.39019V12.0964C0 13.0896 0.211294 13.8466 0.635088 14.3553C1.05888 14.864 1.64355 15.116 2.3879 15.116C3.02259 15.116 3.58604 14.8588 4.07826 14.3444C4.56449 13.826 4.81181 13.0896 4.81181 12.1303V3.09708C4.81181 2.07845 4.5897 1.3069 4.1551 0.782447C3.7205 0.257991 3.13104 0 2.3879 0Z" fill="white"/>
<path d="M16.3935 24.1831C16.235 23.8731 15.9721 23.4189 15.6071 22.8254L11.2083 15.7083C11.0259 15.3558 10.8085 14.6666 11.4616 14.0477L13.2193 12.3871C14.5295 11.1759 15.1838 10.2049 15.1822 9.47414C15.1895 9.19817 15.14 8.92367 15.0366 8.66804C14.9333 8.41242 14.7784 8.18125 14.5819 7.98919C14.384 7.79353 14.1489 7.64022 13.8908 7.53844C13.6328 7.43666 13.357 7.38852 13.08 7.3969C12.614 7.38268 12.1565 7.52544 11.7798 7.80266C11.4196 8.06913 10.9154 8.56572 10.2419 9.29609L7.08925 12.6972C5.37486 14.5479 6.3353 16.0086 6.3353 16.0086L8.46988 19.893L11.6886 25.3435C12.232 26.2042 12.6622 26.7985 12.9791 27.1264C13.3009 27.4534 13.7535 27.6169 14.3418 27.6169C15.0269 27.6169 15.5783 27.3904 15.9961 26.9374C16.4163 26.4796 16.624 25.8582 16.624 25.0673C16.6195 24.7581 16.5404 24.4546 16.3935 24.1831V24.1831Z" fill="white"/>
<path d="M0.0996613 25.2442C0.108881 25.7022 0.251931 26.1473 0.510885 26.5237C0.769839 26.9001 1.13316 27.1909 1.55531 27.3598C1.97745 27.5287 2.43962 27.5681 2.88386 27.473C3.3281 27.378 3.73465 27.1528 4.05251 26.8256C4.37038 26.4983 4.58542 26.0838 4.67068 25.6337C4.75594 25.1837 4.70762 24.7184 4.53177 24.2959C4.35593 23.8735 4.06038 23.5129 3.6822 23.2593C3.30402 23.0056 2.86003 22.8703 2.40591 22.8702C1.78809 22.8766 1.19807 23.1302 0.765591 23.5754C0.333112 24.0206 0.0935808 24.6208 0.0996613 25.2442V25.2442Z" fill="white"/>
<path d="M22.1045 8.02308C21.5538 8.03548 21.0188 7.83781 20.6062 7.46955C20.1917 7.09973 19.9844 6.5777 19.9844 5.90345C19.9763 5.6202 20.0291 5.33853 20.1391 5.07782C20.2492 4.8171 20.4138 4.5835 20.6218 4.39307C21.0205 4.00784 21.5525 3.79489 22.1045 3.79958C22.6336 3.7959 23.1459 3.98712 23.5452 4.33735C23.9654 4.69587 24.1755 5.21791 24.1755 5.90345C24.1755 6.56881 23.9706 7.08802 23.5608 7.46107C23.1649 7.83003 22.6435 8.03125 22.1045 8.02308V8.02308ZM24.1791 12.484V24.9668C24.1791 25.8316 23.979 26.4852 23.5788 26.9277C23.3888 27.1436 23.1543 27.3149 22.8917 27.4298C22.6292 27.5446 22.345 27.6002 22.0589 27.5927C21.7744 27.601 21.4917 27.5441 21.2322 27.4262C20.9726 27.3083 20.743 27.1325 20.5606 26.912C20.1764 26.459 19.9844 25.8106 19.9844 24.9668V12.6124C19.9844 11.7589 20.1764 11.1153 20.5606 10.6817C20.748 10.4694 20.9793 10.3014 21.2382 10.1894C21.4972 10.0774 21.7773 10.0243 22.0589 10.0337C22.3434 10.0258 22.6263 10.0795 22.8885 10.1913C23.1507 10.3031 23.3861 10.4703 23.5788 10.6817C23.9782 11.1145 24.1783 11.7153 24.1791 12.484Z" fill="white"/>
<path d="M42.4622 19.1287V24.8711C42.4622 25.7787 42.2622 26.459 41.862 26.912C41.6649 27.1356 41.4213 27.3126 41.1486 27.4302C40.8759 27.5479 40.5808 27.6034 40.2844 27.5927C39.9931 27.6022 39.7034 27.5461 39.4363 27.4283C39.1692 27.3105 38.9315 27.1342 38.7405 26.912C38.3468 26.459 38.1495 25.7787 38.1487 24.8711V17.9902C38.1602 17.145 38.1246 16.2998 38.0418 15.4587C37.9926 14.9185 37.7882 14.4045 37.4535 13.9798C37.1334 13.5947 36.6316 13.4021 35.9481 13.4021C34.5746 13.4021 33.6706 13.8866 33.236 14.8555C32.8014 15.8245 32.5837 17.2166 32.5829 19.0318V24.8687C32.5829 25.7666 32.3856 26.4444 31.991 26.9023C31.7987 27.1277 31.5586 27.3066 31.2884 27.4257C31.0182 27.5448 30.725 27.601 30.4303 27.5903C30.136 27.5989 29.8434 27.5417 29.5736 27.4227C29.3037 27.3038 29.0633 27.126 28.8696 26.9023C28.4646 26.4428 28.2625 25.765 28.2633 24.8687V12.5143C28.2633 11.7028 28.445 11.0858 28.8084 10.6635C28.9861 10.4559 29.2079 10.2912 29.4573 10.1818C29.7067 10.0723 29.9773 10.0209 30.249 10.0313C30.5169 10.0237 30.7833 10.0726 31.0314 10.1748C31.2795 10.277 31.5037 10.4302 31.6897 10.6248C32.0739 11.0196 32.266 11.5655 32.266 12.2623V12.6729C32.9935 11.7766 33.7719 11.1173 34.601 10.695C35.4591 10.2673 36.4053 10.0506 37.3623 10.0628C38.418 10.0628 39.3244 10.2792 40.0816 10.712C40.8731 11.1793 41.5216 11.8578 41.9556 12.6729C42.6623 11.7847 43.4203 11.1282 44.2295 10.7035C45.0603 10.2709 45.9838 10.0509 46.9187 10.0628C48.0648 10.0628 49.0533 10.2949 49.884 10.7592C50.6983 11.2065 51.3494 11.9046 51.7425 12.7517C52.1019 13.5325 52.2811 14.7615 52.2803 16.4386V24.8699C52.2803 25.7775 52.0802 26.4578 51.6801 26.9108C51.4824 27.1349 51.238 27.3121 50.9644 27.4298C50.6909 27.5475 50.3949 27.6027 50.0977 27.5915C49.8034 27.6001 49.5108 27.5429 49.241 27.4239C48.9711 27.305 48.7307 27.1273 48.537 26.9035C48.132 26.444 47.9319 25.7662 47.9368 24.8699V17.6135C47.9453 16.8683 47.9052 16.1234 47.8167 15.3836C47.7564 14.8609 47.539 14.3694 47.1936 13.975C46.8567 13.5963 46.3444 13.4065 45.6569 13.4057C45.0934 13.409 44.5444 13.5856 44.083 13.912C43.5845 14.2523 43.185 14.7206 42.9257 15.2686C42.6167 15.9969 42.4622 17.2836 42.4622 19.1287Z" fill="white"/>
<path d="M60.2232 12.4525V12.9745C61.0123 11.9732 61.8315 11.2376 62.6807 10.7677C63.5687 10.2893 64.5628 10.0471 65.5692 10.064C66.8305 10.0554 68.0676 10.4123 69.1337 11.0923C70.219 11.7778 71.077 12.7799 71.7076 14.0985C72.3383 15.4171 72.6533 16.978 72.6525 18.7811C72.6654 20.0232 72.481 21.2593 72.1062 22.4426C71.7925 23.4657 71.284 24.4173 70.6091 25.2441C69.9925 25.9868 69.2207 26.5827 68.3489 26.9889C67.4772 27.3952 66.5271 27.6018 65.5668 27.5939C64.3663 27.5939 63.3598 27.346 62.5474 26.8502C61.7351 26.3544 60.9595 25.6277 60.2208 24.67V31.1573C60.2208 33.0556 59.5497 34.0048 58.2075 34.0048C57.4183 34.0048 56.8981 33.7593 56.6468 33.2684C56.3954 32.7775 56.2674 32.0632 56.2626 31.1258V12.484C56.2626 11.662 56.4366 11.0479 56.7848 10.6417C57.133 10.2356 57.6092 10.0337 58.2135 10.0361C58.4861 10.0271 58.7574 10.0784 59.0084 10.1863C59.2593 10.2943 59.4838 10.4563 59.6661 10.6611C60.0367 11.0753 60.2224 11.6725 60.2232 12.4525ZM68.4422 18.7338C68.4422 17.5937 68.2733 16.6154 67.9355 15.7991C67.5978 14.9827 67.1291 14.3553 66.5297 13.9168C65.9544 13.4868 65.2564 13.2564 64.5404 13.2604C63.3822 13.2604 62.4066 13.7295 61.6134 14.6678C60.8203 15.6061 60.4233 16.9877 60.4225 18.8126C60.4225 20.5317 60.8171 21.8685 61.6062 22.8229C62.3954 23.7773 63.3718 24.2545 64.5356 24.2545C65.2295 24.2553 65.9063 24.0367 66.4708 23.6296C67.0647 23.2129 67.5413 22.5879 67.9007 21.7546C68.2601 20.9213 68.4406 19.9144 68.4422 18.7338Z" fill="white"/>
<path d="M75.2385 24.5767V3.0692C75.2385 2.076 75.4253 1.32545 75.7991 0.81755C75.9692 0.573941 76.1965 0.376713 76.4607 0.243539C76.725 0.110365 77.0178 0.0454069 77.313 0.0544863C77.6101 0.0467966 77.9046 0.111217 78.1718 0.242323C78.439 0.373429 78.6711 0.567385 78.8485 0.807862C79.2375 1.31011 79.432 2.06389 79.432 3.0692V24.5767C79.432 25.582 79.2351 26.3358 78.8413 26.8381C78.6643 27.0772 78.4333 27.2704 78.1675 27.4016C77.9018 27.5329 77.6088 27.5983 77.313 27.5927C77.0188 27.5971 76.7281 27.5281 76.4667 27.3918C76.2053 27.2555 75.9813 27.0561 75.8147 26.8114C75.4305 26.2906 75.2385 25.5457 75.2385 24.5767Z" fill="white"/>
<path d="M94.6946 19.8724H86.49C86.481 20.7703 86.6778 21.6582 87.0651 22.4668C87.3924 23.1634 87.9096 23.7516 88.5561 24.1625C89.1737 24.5413 89.884 24.7385 90.6067 24.7318C91.0715 24.7368 91.5347 24.6756 91.9825 24.5501C92.4089 24.4221 92.8137 24.2297 93.1831 23.9796C93.5631 23.7304 93.9242 23.453 94.2636 23.1499C94.5917 22.8544 95.0167 22.4535 95.5386 21.9472C95.7547 21.757 96.0608 21.6625 96.4606 21.6625C96.8419 21.6451 97.2154 21.7751 97.5051 22.0259C97.7716 22.2682 97.9048 22.6109 97.9048 23.0542C97.9048 23.4459 97.7564 23.9021 97.4594 24.4229C97.1095 25.0052 96.6532 25.5153 96.1148 25.926C95.4341 26.4496 94.6706 26.8533 93.8566 27.1203C92.8494 27.4521 91.7945 27.6126 90.7352 27.5951C88.0411 27.5951 85.9466 26.8042 84.4515 25.2223C82.9564 23.6405 82.2084 21.4942 82.2076 18.7835C82.1968 17.577 82.3838 16.3771 82.7611 15.2322C83.0993 14.1929 83.6489 13.2362 84.3746 12.4234C85.0974 11.6307 85.9907 11.0158 86.9858 10.626C88.083 10.1977 89.2515 9.98552 90.4278 10.001C92.0662 10.001 93.472 10.3567 94.6454 11.068C95.7624 11.7216 96.675 12.6784 97.2794 13.8296C97.8467 14.8894 98.1477 16.0735 98.1558 17.2779C98.1558 18.3648 97.8536 19.0689 97.2494 19.3903C96.6451 19.7117 95.7935 19.8724 94.6946 19.8724ZM86.49 17.4209H94.0943C93.9918 15.9432 93.6053 14.8382 92.9346 14.1058C92.2639 13.3734 91.3807 13.0084 90.2849 13.0108C89.2389 13.0108 88.3809 13.3827 87.711 14.1264C87.0411 14.8701 86.6341 15.9682 86.49 17.4209V17.4209Z" fill="white"/>
</svg>
