<svg width="18" height="18" viewBox="0 0 18 18" fill="none" xmlns="http://www.w3.org/2000/svg">
<path d="M18 9C18 13.9706 13.9706 18 9 18C4.02944 18 0 13.9706 0 9C0 4.02944 4.02944 0 9 0C13.9706 0 18 4.02944 18 9Z" fill="#75D3A0"/>
<path fill-rule="evenodd" clip-rule="evenodd" d="M9 17.64C13.7717 17.64 17.64 13.7717 17.64 9C17.64 4.22826 13.7717 0.36 9 0.36C4.22826 0.36 0.36 4.22826 0.36 9C0.36 13.7717 4.22826 17.64 9 17.64ZM9 18C13.9706 18 18 13.9706 18 9C18 4.02944 13.9706 0 9 0C4.02944 0 0 4.02944 0 9C0 13.9706 4.02944 18 9 18Z" fill="#232349"/>
<g filter="url(#filter0_d_4175_2054)">
<path d="M14.64 8.97005C14.64 12.1015 12.1015 14.64 8.97 14.64C5.83855 14.64 3.3 12.1015 3.3 8.97005C3.3 5.83859 5.83855 3.30005 8.97 3.30005C12.1015 3.30005 14.64 5.83859 14.64 8.97005Z" fill="#F8F8F8"/>
<path d="M14.64 8.97009C14.64 9.71469 14.4933 10.452 14.2084 11.1399C13.9235 11.8278 13.5058 12.4529 12.9793 12.9794L8.97 8.97009H14.64Z" fill="#F8F8F8"/>
<path fill-rule="evenodd" clip-rule="evenodd" d="M14.0975 11.094C14.3611 10.4576 14.5038 9.77805 14.5187 9.09009H9.25971L12.9784 12.8088C13.4543 12.3118 13.8339 11.7304 14.0975 11.094ZM13.0633 12.8936C13.036 12.9221 13.0084 12.9503 12.9805 12.9782C12.9801 12.9786 12.9797 12.979 12.9793 12.9794L8.97 8.97009H14.64C14.64 9.01012 14.6396 9.05012 14.6387 9.09009C14.6238 9.79381 14.478 10.489 14.2084 11.1399C13.9388 11.7908 13.5503 12.3855 13.0633 12.8936Z" fill="#232349"/>
<circle cx="12.72" cy="10.5001" r="0.42" fill="#DEDEE3"/>
<path d="M12.9793 12.9794C11.916 14.0427 10.4738 14.6401 8.97 14.6401L8.97 8.97009L12.9793 12.9794Z" fill="#5255E2"/>
<path fill-rule="evenodd" clip-rule="evenodd" d="M12.9793 12.9794C12.9789 12.9798 12.9785 12.9802 12.9781 12.9806C12.9502 13.0085 12.922 13.0361 12.8935 13.0633C11.868 14.0465 10.5104 14.6088 9.09 14.6388C9.05005 14.6397 9.01005 14.6401 8.97 14.6401L8.97 8.97009L12.9793 12.9794ZM9.09 9.2598L9.09 14.5188C10.4785 14.4888 11.8056 13.9391 12.8087 12.9785L9.09 9.2598Z" fill="#232349"/>
<circle cx="10.56" cy="12.84" r="0.42" fill="#7C7EE7"/>
<path d="M8.97001 14.6401C8.22541 14.6401 7.48811 14.4934 6.80019 14.2085C6.11227 13.9235 5.48722 13.5059 4.96071 12.9794L8.97001 8.97009L8.97001 14.6401Z" fill="#F8F8F8"/>
<path fill-rule="evenodd" clip-rule="evenodd" d="M6.84611 14.0976C7.48249 14.3612 8.16205 14.5039 8.85001 14.5188L8.85001 9.2598L5.13133 12.9785C5.62831 13.4544 6.20973 13.834 6.84611 14.0976ZM5.04646 13.0633C5.01759 13.0357 4.98901 13.0077 4.96071 12.9794L8.97001 8.97009L8.97001 14.6401C8.92998 14.6401 8.88998 14.6397 8.85001 14.6388C8.14629 14.6239 7.45113 14.4781 6.80019 14.2085C6.14925 13.9389 5.55459 13.5504 5.04646 13.0633Z" fill="#232349"/>
<circle cx="7.44" cy="12.66" r="0.42" fill="#DEDEE3"/>
<path d="M4.96071 12.9794C4.4342 12.4529 4.01655 11.8278 3.73161 11.1399C3.44666 10.452 3.3 9.71469 3.3 8.97009L8.97 8.97009L4.96071 12.9794Z" fill="#5255E2"/>
<path fill-rule="evenodd" clip-rule="evenodd" d="M4.96071 12.9794C4.93241 12.9511 4.90442 12.9225 4.87675 12.8936C4.38968 12.3855 4.00123 11.7908 3.73161 11.1399C3.46198 10.489 3.31617 9.79381 3.30127 9.09009C3.30043 9.05012 3.3 9.01012 3.3 8.97009L8.97 8.97009L4.96071 12.9794ZM8.6803 9.09009L3.4213 9.09009C3.43618 9.77805 3.57887 10.4576 3.84247 11.094C4.10607 11.7304 4.48569 12.3118 4.96162 12.8088L8.6803 9.09009Z" fill="#232349"/>
<circle cx="5.16001" cy="10.5001" r="0.42" fill="#7C7EE7"/>
<path d="M3.3 8.96999C3.3 8.2254 3.44666 7.48809 3.73161 6.80017C4.01655 6.11226 4.4342 5.4872 4.96071 4.96069L8.97 8.96999L3.3 8.96999Z" fill="#F8F8F8"/>
<path fill-rule="evenodd" clip-rule="evenodd" d="M3.84247 6.8461C3.57887 7.48248 3.43618 8.16204 3.4213 8.84999L8.6803 8.84999L4.96163 5.13132C4.48569 5.62829 4.10607 6.20972 3.84247 6.8461ZM4.87676 5.04644C4.38969 5.55458 4.00124 6.14923 3.73161 6.80017C3.46198 7.45111 3.31617 8.14628 3.30127 8.84999C3.30043 8.88997 3.3 8.92997 3.3 8.96999L8.97 8.96999L4.96071 4.96069C4.93241 4.98899 4.90442 5.01758 4.87676 5.04644Z" fill="#232349"/>
<circle cx="5.16001" cy="7.49996" r="0.42" fill="#DEDEE3"/>
<path d="M4.96071 4.96075C5.48722 4.43424 6.11227 4.0166 6.80019 3.73165C7.48811 3.44671 8.22541 3.30005 8.97001 3.30005L8.97001 8.97005L4.96071 4.96075Z" fill="#5255E2"/>
<path fill-rule="evenodd" clip-rule="evenodd" d="M4.96071 4.96075C4.96099 4.96047 4.96127 4.96019 4.96156 4.95991C4.98958 4.93189 5.01788 4.90419 5.04646 4.8768C5.55459 4.38973 6.14925 4.00128 6.80019 3.73165C7.45113 3.46202 8.14629 3.31621 8.85001 3.30132C8.88998 3.30047 8.92998 3.30005 8.97 3.30005C8.97 3.30005 8.97 3.30005 8.97 3.30005L8.97 8.97005L4.96071 4.96075ZM8.85 8.68034L8.85001 3.42135C8.16205 3.43622 7.48249 3.57892 6.84611 3.84252C6.20973 4.10611 5.62831 4.48573 5.13133 4.96167L8.85 8.68034Z" fill="#232349"/>
<circle cx="7.31999" cy="5.04" r="0.42" fill="#7C7EE7"/>
<path d="M8.97 3.30005C9.7146 3.30005 10.4519 3.44671 11.1398 3.73165C11.8277 4.0166 12.4528 4.43425 12.9793 4.96076L8.97 8.97005V3.30005Z" fill="#F8F8F8"/>
<path fill-rule="evenodd" clip-rule="evenodd" d="M11.0939 3.84252C10.4575 3.57892 9.77796 3.43622 9.09 3.42135L9.09 8.68034L12.8087 4.96167C12.3117 4.48574 11.7303 4.10612 11.0939 3.84252ZM12.8935 4.8768C12.3854 4.38973 11.7908 4.00128 11.1398 3.73165C10.4889 3.46202 9.79372 3.31621 9.09 3.30132C9.05003 3.30047 9.01002 3.30005 8.97 3.30005V8.97005L12.9793 4.96076C12.951 4.93246 12.9224 4.90447 12.8935 4.8768Z" fill="#232349"/>
<circle cx="10.68" cy="5.04" r="0.42" fill="#DEDEE3"/>
<path d="M12.9793 4.96082C13.5058 5.48732 13.9235 6.11238 14.2084 6.8003C14.4933 7.48821 14.64 8.22552 14.64 8.97012L8.97 8.97011L12.9793 4.96082Z" fill="#5255E2"/>
<path fill-rule="evenodd" clip-rule="evenodd" d="M12.9793 4.96082C13.0076 4.98912 13.0356 5.0177 13.0633 5.04657C13.5503 5.5547 13.9388 6.14936 14.2084 6.8003C14.478 7.45124 14.6238 8.1464 14.6387 8.85012C14.6396 8.89009 14.64 8.93008 14.64 8.9701C14.64 8.9701 14.64 8.97011 14.64 8.9701L8.97 8.97011L12.9793 4.96082ZM9.25971 8.85011L14.5187 8.85012C14.5038 8.16216 14.3611 7.4826 14.0975 6.84622C13.8339 6.20984 13.4543 5.62842 12.9784 5.13144L9.25971 8.85011Z" fill="#232349"/>
<circle cx="12.72" cy="7.50008" r="0.42" fill="#7C7EE7"/>
<g filter="url(#filter1_d_4175_2054)">
<path d="M10.02 8.97004C10.02 9.54994 9.5499 10.02 8.97 10.02C8.3901 10.02 7.92 9.54994 7.92 8.97004C7.92 8.39014 8.3901 7.92004 8.97 7.92004C9.5499 7.92004 10.02 8.39014 10.02 8.97004Z" fill="#FF6F63"/>
</g>
<g filter="url(#filter2_d_4175_2054)">
<path fill-rule="evenodd" clip-rule="evenodd" d="M8.97 9.84004C9.45049 9.84004 9.84 9.45053 9.84 8.97004C9.84 8.48956 9.45049 8.10004 8.97 8.10004C8.48951 8.10004 8.1 8.48956 8.1 8.97004C8.1 9.45053 8.48951 9.84004 8.97 9.84004ZM8.97 10.02C9.5499 10.02 10.02 9.54994 10.02 8.97004C10.02 8.39014 9.5499 7.92004 8.97 7.92004C8.3901 7.92004 7.92 8.39014 7.92 8.97004C7.92 9.54994 8.3901 10.02 8.97 10.02Z" fill="#232349"/>
</g>
<path fill-rule="evenodd" clip-rule="evenodd" d="M8.97 14.28C11.9026 14.28 14.28 11.9027 14.28 8.97005C14.28 6.03742 11.9026 3.66005 8.97 3.66005C6.03737 3.66005 3.66 6.03742 3.66 8.97005C3.66 11.9027 6.03737 14.28 8.97 14.28ZM8.97 14.64C12.1015 14.64 14.64 12.1015 14.64 8.97005C14.64 5.83859 12.1015 3.30005 8.97 3.30005C5.83855 3.30005 3.3 5.83859 3.3 8.97005C3.3 12.1015 5.83855 14.64 8.97 14.64Z" fill="#232349"/>
<path d="M9.15588 4.8901C9.0866 5.0101 8.9134 5.0101 8.84411 4.8901L7.80488 3.0901C7.7356 2.9701 7.8222 2.8201 7.96077 2.8201L10.0392 2.8201C10.1778 2.8201 10.2644 2.9701 10.1951 3.0901L9.15588 4.8901Z" fill="#FF6F63"/>
<path fill-rule="evenodd" clip-rule="evenodd" d="M7.96077 3.0001L9 4.8001L10.0392 3.0001L7.96077 3.0001ZM8.84411 4.8901C8.9134 5.0101 9.0866 5.0101 9.15588 4.8901L10.1951 3.0901C10.2644 2.9701 10.1778 2.8201 10.0392 2.8201L7.96077 2.8201C7.8222 2.8201 7.7356 2.9701 7.80488 3.0901L8.84411 4.8901Z" fill="#232349"/>
</g>
<defs>
<filter id="filter0_d_4175_2054" x="3.3" y="2.82007" width="11.34" height="12.4601" filterUnits="userSpaceOnUse" color-interpolation-filters="sRGB">
<feFlood flood-opacity="0" result="BackgroundImageFix"/>
<feColorMatrix in="SourceAlpha" type="matrix" values="0 0 0 0 0 0 0 0 0 0 0 0 0 0 0 0 0 0 127 0" result="hardAlpha"/>
<feOffset dy="0.64"/>
<feComposite in2="hardAlpha" operator="out"/>
<feColorMatrix type="matrix" values="0 0 0 0 0.137255 0 0 0 0 0.137255 0 0 0 0 0.286275 0 0 0 0.3 0"/>
<feBlend mode="normal" in2="BackgroundImageFix" result="effect1_dropShadow_4175_2054"/>
<feBlend mode="normal" in="SourceGraphic" in2="effect1_dropShadow_4175_2054" result="shape"/>
</filter>
<filter id="filter1_d_4175_2054" x="7.92" y="7.92004" width="2.10001" height="2.41998" filterUnits="userSpaceOnUse" color-interpolation-filters="sRGB">
<feFlood flood-opacity="0" result="BackgroundImageFix"/>
<feColorMatrix in="SourceAlpha" type="matrix" values="0 0 0 0 0 0 0 0 0 0 0 0 0 0 0 0 0 0 127 0" result="hardAlpha"/>
<feOffset dy="0.32"/>
<feComposite in2="hardAlpha" operator="out"/>
<feColorMatrix type="matrix" values="0 0 0 0 0.137255 0 0 0 0 0.137255 0 0 0 0 0.286275 0 0 0 0.3 0"/>
<feBlend mode="normal" in2="BackgroundImageFix" result="effect1_dropShadow_4175_2054"/>
<feBlend mode="normal" in="SourceGraphic" in2="effect1_dropShadow_4175_2054" result="shape"/>
</filter>
<filter id="filter2_d_4175_2054" x="7.92" y="7.92004" width="2.10001" height="2.41998" filterUnits="userSpaceOnUse" color-interpolation-filters="sRGB">
<feFlood flood-opacity="0" result="BackgroundImageFix"/>
<feColorMatrix in="SourceAlpha" type="matrix" values="0 0 0 0 0 0 0 0 0 0 0 0 0 0 0 0 0 0 127 0" result="hardAlpha"/>
<feOffset dy="0.32"/>
<feComposite in2="hardAlpha" operator="out"/>
<feColorMatrix type="matrix" values="0 0 0 0 0.137255 0 0 0 0 0.137255 0 0 0 0 0.286275 0 0 0 0.3 0"/>
<feBlend mode="normal" in2="BackgroundImageFix" result="effect1_dropShadow_4175_2054"/>
<feBlend mode="normal" in="SourceGraphic" in2="effect1_dropShadow_4175_2054" result="shape"/>
</filter>
</defs>
</svg>
