<svg width="16" height="16" viewBox="0 0 16 16" fill="none" xmlns="http://www.w3.org/2000/svg">
<path d="M11.7429 10.3442C12.7112 9.02291 13.1449 7.38471 12.9572 5.75737C12.7695 4.13003 11.9743 2.63356 10.7307 1.56735C9.48701 0.501144 7.88665 -0.0561739 6.24973 0.00689928C4.61282 0.0699724 3.06008 0.748785 1.90217 1.90753C0.744249 3.06628 0.0665484 4.6195 0.00464653 6.25646C-0.0572553 7.89341 0.501207 9.49338 1.56831 10.7363C2.6354 11.9792 4.13244 12.7733 5.75992 12.9598C7.38739 13.1463 9.02528 12.7115 10.3459 11.7422H10.3449C10.3749 11.7822 10.4069 11.8202 10.4429 11.8572L14.2929 15.7072C14.4804 15.8949 14.7348 16.0003 15 16.0004C15.2653 16.0005 15.5198 15.8952 15.7074 15.7077C15.895 15.5202 16.0005 15.2658 16.0006 15.0006C16.0007 14.7353 15.8954 14.4809 15.7079 14.2932L11.8579 10.4432C11.8221 10.407 11.7837 10.3736 11.7429 10.3432V10.3442ZM12.0009 6.50022C12.0009 7.22249 11.8586 7.93769 11.5822 8.60498C11.3058 9.27227 10.9007 9.87859 10.39 10.3893C9.87926 10.9 9.27295 11.3052 8.60566 11.5816C7.93837 11.858 7.22317 12.0002 6.5009 12.0002C5.77863 12.0002 5.06343 11.858 4.39614 11.5816C3.72885 11.3052 3.12253 10.9 2.61181 10.3893C2.10109 9.87859 1.69596 9.27227 1.41956 8.60498C1.14316 7.93769 1.0009 7.22249 1.0009 6.50022C1.0009 5.04153 1.58036 3.64259 2.61181 2.61114C3.64326 1.57969 5.04221 1.00022 6.5009 1.00022C7.95959 1.00022 9.35854 1.57969 10.39 2.61114C11.4214 3.64259 12.0009 5.04153 12.0009 6.50022Z" fill="#5A5A76"/>
</svg>
